<svg fill="none" height="400" viewBox="0 0 400 400" width="400" xmlns="http://www.w3.org/2000/svg"><g stroke="#000" stroke-linecap="round" stroke-linejoin="round" stroke-opacity=".9" stroke-width="16"><path d="m113 307.118c46.034-57.263.914-131.705 36.893-203.566 17.188-34.3321 73.84-42.3156 100.528-15.6585 48.761 48.6945 19.705 122.0775 26.748 171.3265 2.045 14.284 21.477 43.132 2.767 54.344-29.602 17.74-29.878-29.364-48.881-33.16-11.921-2.381-6.637 49.067-32.281 40.529-10.049-3.344-.745-29.161-14.757-33.159-13.521-3.859-15.868 59.68-41.502 34.082"/><path d="m221.475 170.81c-.625 3.589-.839 7.262-1.471 10.714"/><path d="m196.928 180.334c0-2.778 0-5.556 0-8.334"/></g></svg>